<svg width="26" height="25" viewBox="0 0 26 25" fill="none" xmlns="http://www.w3.org/2000/svg">
<path d="M13.0732 0C6.16969 0 0.572998 5.59654 0.572998 12.5001C0.572998 19.4039 6.16969 25 13.0732 25C19.9775 25 25.5736 19.4039 25.5736 12.5001C25.5736 5.59699 19.9775 0.000597072 13.0731 0.000597072L13.0732 0ZM18.8057 18.0287C18.5818 18.3959 18.1012 18.5123 17.734 18.2869C14.7991 16.4942 11.1044 16.0882 6.75318 17.0823C6.33388 17.1779 5.91593 16.9151 5.8204 16.4957C5.72442 16.0763 5.98609 15.6583 6.40643 15.5628C11.1681 14.4749 15.2525 14.9433 18.5475 16.9569C18.9147 17.1823 19.0311 17.6615 18.8057 18.0287ZM20.3357 14.6251C20.0536 15.0836 19.4536 15.2284 18.9953 14.9463C15.6353 12.881 10.5134 12.2829 6.53913 13.4893C6.0237 13.645 5.47932 13.3545 5.32288 12.84C5.16764 12.3245 5.45827 11.7812 5.9728 11.6245C10.5125 10.247 16.1562 10.9142 20.0148 13.2854C20.4731 13.5675 20.6179 14.1674 20.3357 14.6251ZM20.4671 11.0808C16.4383 8.6879 9.7914 8.46787 5.94489 9.63531C5.32721 9.82264 4.67401 9.47395 4.48683 8.85627C4.29964 8.2383 4.64804 7.58555 5.26616 7.39777C9.68168 6.05733 17.022 6.31631 21.6604 9.06988C22.2171 9.39961 22.3992 10.1171 22.0694 10.672C21.741 11.2276 21.0215 11.4107 20.4677 11.0808H20.4671Z" fill="white"/>
</svg>
